<svg xmlns="http://www.w3.org/2000/svg" viewBox="0 0 160 127" xmlns:c2pa="http://c2pa.org/manifest"><metadata><c2pa:manifest>AAAWgmp1bWIAAAAeanVtZGMycGEAEQAQgAAAqgA4m3EDYzJwYQAAABZcanVtYgAAAEdqdW1kYzJtYQARABCAAACqADibcQN1cm46YzJwYTpkZTFlNTExYi05MDYxLTQxNjgtYWY1YS1kZDVlYTgyZjJjYzgAAAADl2p1bWIAAAApanVtZGMyYXMAEQAQgAAAqgA4m3EDYzJwYS5hc3NlcnRpb25zAAAAALxqdW1iAAAARGp1bWRjYm9yABEAEIAAAKoAOJtxE2MycGEuaW5ncmVkaWVudC52MwAAAAAYYzJzaDbhMBdTq0+bH1etNuvpu5oAAABwY2JvcqNpZGM6Zm9ybWF0bWltYWdlL3N2Zyt4bWxqaW5zdGFuY2VJRHgseG1wOmlpZDphZGJhMDVmOC1jNzFmLTQwZWYtODZhYS0zNjg0NTVjMDBlMzNscmVsYXRpb25zaGlwaHBhcmVudE9mAAAB4mp1bWIAAABBanVtZGNib3IAEQAQgAAAqgA4m3ETYzJwYS5hY3Rpb25zLnYyAAAAABhjMnNoznWFRfUhSDa4y48u8cbPdwAAAZljYm9yomdhY3Rpb25zgqJmYWN0aW9ua2MycGEub3BlbmVkanBhcmFtZXRlcnOha2luZ3JlZGllbnRzgaJjdXJseC1zZWxmI2p1bWJmPWMycGEuYXNzZXJ0aW9ucy9jMnBhLmluZ3JlZGllbnQudjNkaGFzaFggawKUdxjwJMXSoMyEnb59tfZn+iRMaDnjAJjHVecimXekZmFjdGlvbngdY29tLmFudGhyb3BpYy5jbGF1ZGUucHJvdmlkZWRqcGFyYW1ldGVyc6F4H2NvbS5hbnRocm9waWMub3JpZ2luLWNvbmZpZGVuY2VndW5rbm93bmtkZXNjcmlwdGlvbnhmQ2xhdWRlIHByb3ZpZGVkIHRoaXMgZmlsZSBhdCB0aGUgcmVxdWVzdCBvZiBhIHVzZXIgYW5kIG1heSBoYXZlIGNyZWF0ZWQgb3IgbW9kaWZpZWQgdGhlIGZpbGUgY29udGVudHMubXNvZnR3YXJlQWdlbnShZG5hbWVmQ2xhdWRlcmFsbEFjdGlvbnNJbmNsdWRlZPUAAADIanVtYgAAAEBqdW1kY2JvcgARABCAAACqADibcRNjMnBhLmhhc2guZGF0YQAAAAAYYzJzaHaMEgt345jo1Galrz2IUAoAAACAY2JvcqVjYWxnZnNoYTI1NmNwYWRNAAAAAAAAAAAAAAAAAGRoYXNoWCCwAc8+JEGp40f4bQKrI5d7YegF+o1LMM2JUorGvYUFLWRuYW1lbmp1bWJmIG1hbmlmZXN0amV4Y2x1c2lvbnOBomVzdGFydBh9Zmxlbmd0aBkeBAAAAj5qdW1iAAAAJ2p1bWRjMmNsABEAEIAAAKoAOJtxA2MycGEuY2xhaW0udjIAAAACD2Nib3KlY2FsZ2ZzaGEyNTZpc2lnbmF0dXJleE1zZWxmI2p1bWJmPS9jMnBhL3VybjpjMnBhOmRlMWU1MTFiLTkwNjEtNDE2OC1hZjVhLWRkNWVhODJmMmNjOC9jMnBhLnNpZ25hdHVyZWppbnN0YW5jZUlEeCx4bXA6aWlkOmUxZmViZWRiLTU2MjQtNDVjZC1iZjQyLTIzNjE5NzFiMTdlNnJjcmVhdGVkX2Fzc2VydGlvbnODomN1cmx4LXNlbGYjanVtYmY9YzJwYS5hc3NlcnRpb25zL2MycGEuaW5ncmVkaWVudC52M2RoYXNoWCBrApR3GPAkxdKgzISdvn219mf6JExoOeMAmMdV5yKZd6JjdXJseCpzZWxmI2p1bWJmPWMycGEuYXNzZXJ0aW9ucy9jMnBhLmFjdGlvbnMudjJkaGFzaFgg0TX1wQKaCPbFqr88mW+J6Y+k6mc2ck3DoWKnDl9tlL+iY3VybHgpc2VsZiNqdW1iZj1jMnBhLmFzc2VydGlvbnMvYzJwYS5oYXNoLmRhdGFkaGFzaFggk9X6+pbPjsj7tWMeZ+Qmw9yBtwu0UXtI93EFwZBP0vB0Y2xhaW1fZ2VuZXJhdG9yX2luZm+jZG5hbWVvQW50aHJvcGljIEZpbGVzZ3ZlcnNpb25lMS4wLjBrc3BlY1ZlcnNpb25lMi40LjAAABA4anVtYgAAAChqdW1kYzJjcwARABCAAACqADibcQNjMnBhLnNpZ25hdHVyZQAAABAIY2JvctKEWQISogEmGCFZAgowggIGMIIBjaADAgECAhRA5aAK7sI50L64g/oGQgU9Z1UTADAKBggqhkjOPQQDAzBJMRcwFQYDVQQKEw5BbnRocm9waWMsIFBCQzEuMCwGA1UEAxMlQW50aHJvcGljIENvbnRlbnQgQ3JlZGVudGlhbHMgUm9vdCBDQTAeFw0yNjA4MDcxODQzNTZaFw0yODA4MDYxOTQzNTZaMEQxFzAVBgNVBAoTDkFudGhyb3BpYywgUEJDMSkwJwYDVQQDEyBBbnRocm9waWMgQ2xhdWRlIENvbnRlbnQgU2lnbmluZzBZMBMGByqGSM49AgEGCCqGSM49AwEHA0IABJh6CmvLUBgFFNU0vUKlOVtE6djd17L5SuwX0LemFisBM3dkd/3cyjxFA3Qo5S46fX0/ihY0VZ7mfb9KF703t5OjWDBWMA4GA1UdDwEB/wQEAwIHgDAVBgNVHSUEDjAMBgorBgEEAYPoXgIBMAwGA1UdEwEB/wQCMAAwHwYDVR0jBBgwFoAUzlHiBIFOZFsj+OPEz5o+nMHXXMIwCgYIKoZIzj0EAwMDZwAwZAIwMXMdFJ4BetLLVY7ORuE9noqbbAZOZn/aArXyTwFAZfKrPzxF2vPoJNf1+UCdg1XGAjBwX1zd9WGqYkqmL5SFqw1QySjr1zJfpJM9+1rdDwSPLMOPOjKuiXjoU/pUUeG9RwmhY3BhZFkNngAAAAAAAAAAAAAAAAAAAAAAAAAAAAAAAAAAAAAAAAAAAAAAAAAAAAAAAAAAAAAAAAAAAAAAAAAAAAAAAAAAAAAAAAAAAAAAAAAAAAAAAAAAAAAAAAAAAAAAAAAAAAAAAAAAAAAAAAAAAAAAAAAAAAAAAAAAAAAAAAAAAAAAAAAAAAAAAAAAAAAAAAAAAAAAAAAAAAAAAAAAAAAAAAAAAAAAAAAAAAAAAAAAAAAAAAAAAAAAAAAAAAAAAAAAAAAAAAAAAAAAAAAAAAAAAAAAAAAAAAAAAAAAAAAAAAAAAAAAAAAAAAAAAAAAAAAAAAAAAAAAAAAAAAAAAAAAAAAAAAAAAAAAAAAAAAAAAAAAAAAAAAAAAAAAAAAAAAAAAAAAAAAAAAAAAAAAAAAAAAAAAAAAAAAAAAAAAAAAAAAAAAAAAAAAAAAAAAAAAAAAAAAAAAAAAAAAAAAAAAAAAAAAAAAAAAAAAAAAAAAAAAAAAAAAAAAAAAAAAAAAAAAAAAAAAAAAAAAAAAAAAAAAAAAAAAAAAAAAAAAAAAAAAAAAAAAAAAAAAAAAAAAAAAAAAAAAAAAAAAAAAAAAAAAAAAAAAAAAAAAAAAAAAAAAAAAAAAAAAAAAAAAAAAAAAAAAAAAAAAAAAAAAAAAAAAAAAAAAAAAAAAAAAAAAAAAAAAAAAAAAAAAAAAAAAAAAAAAAAAAAAAAAAAAAAAAAAAAAAAAAAAAAAAAAAAAAAAAAAAAAAAAAAAAAAAAAAAAAAAAAAAAAAAAAAAAAAAAAAAAAAAAAAAAAAAAAAAAAAAAAAAAAAAAAAAAAAAAAAAAAAAAAAAAAAAAAAAAAAAAAAAAAAAAAAAAAAAAAAAAAAAAAAAAAAAAAAAAAAAAAAAAAAAAAAAAAAAAAAAAAAAAAAAAAAAAAAAAAAAAAAAAAAAAAAAAAAAAAAAAAAAAAAAAAAAAAAAAAAAAAAAAAAAAAAAAAAAAAAAAAAAAAAAAAAAAAAAAAAAAAAAAAAAAAAAAAAAAAAAAAAAAAAAAAAAAAAAAAAAAAAAAAAAAAAAAAAAAAAAAAAAAAAAAAAAAAAAAAAAAAAAAAAAAAAAAAAAAAAAAAAAAAAAAAAAAAAAAAAAAAAAAAAAAAAAAAAAAAAAAAAAAAAAAAAAAAAAAAAAAAAAAAAAAAAAAAAAAAAAAAAAAAAAAAAAAAAAAAAAAAAAAAAAAAAAAAAAAAAAAAAAAAAAAAAAAAAAAAAAAAAAAAAAAAAAAAAAAAAAAAAAAAAAAAAAAAAAAAAAAAAAAAAAAAAAAAAAAAAAAAAAAAAAAAAAAAAAAAAAAAAAAAAAAAAAAAAAAAAAAAAAAAAAAAAAAAAAAAAAAAAAAAAAAAAAAAAAAAAAAAAAAAAAAAAAAAAAAAAAAAAAAAAAAAAAAAAAAAAAAAAAAAAAAAAAAAAAAAAAAAAAAAAAAAAAAAAAAAAAAAAAAAAAAAAAAAAAAAAAAAAAAAAAAAAAAAAAAAAAAAAAAAAAAAAAAAAAAAAAAAAAAAAAAAAAAAAAAAAAAAAAAAAAAAAAAAAAAAAAAAAAAAAAAAAAAAAAAAAAAAAAAAAAAAAAAAAAAAAAAAAAAAAAAAAAAAAAAAAAAAAAAAAAAAAAAAAAAAAAAAAAAAAAAAAAAAAAAAAAAAAAAAAAAAAAAAAAAAAAAAAAAAAAAAAAAAAAAAAAAAAAAAAAAAAAAAAAAAAAAAAAAAAAAAAAAAAAAAAAAAAAAAAAAAAAAAAAAAAAAAAAAAAAAAAAAAAAAAAAAAAAAAAAAAAAAAAAAAAAAAAAAAAAAAAAAAAAAAAAAAAAAAAAAAAAAAAAAAAAAAAAAAAAAAAAAAAAAAAAAAAAAAAAAAAAAAAAAAAAAAAAAAAAAAAAAAAAAAAAAAAAAAAAAAAAAAAAAAAAAAAAAAAAAAAAAAAAAAAAAAAAAAAAAAAAAAAAAAAAAAAAAAAAAAAAAAAAAAAAAAAAAAAAAAAAAAAAAAAAAAAAAAAAAAAAAAAAAAAAAAAAAAAAAAAAAAAAAAAAAAAAAAAAAAAAAAAAAAAAAAAAAAAAAAAAAAAAAAAAAAAAAAAAAAAAAAAAAAAAAAAAAAAAAAAAAAAAAAAAAAAAAAAAAAAAAAAAAAAAAAAAAAAAAAAAAAAAAAAAAAAAAAAAAAAAAAAAAAAAAAAAAAAAAAAAAAAAAAAAAAAAAAAAAAAAAAAAAAAAAAAAAAAAAAAAAAAAAAAAAAAAAAAAAAAAAAAAAAAAAAAAAAAAAAAAAAAAAAAAAAAAAAAAAAAAAAAAAAAAAAAAAAAAAAAAAAAAAAAAAAAAAAAAAAAAAAAAAAAAAAAAAAAAAAAAAAAAAAAAAAAAAAAAAAAAAAAAAAAAAAAAAAAAAAAAAAAAAAAAAAAAAAAAAAAAAAAAAAAAAAAAAAAAAAAAAAAAAAAAAAAAAAAAAAAAAAAAAAAAAAAAAAAAAAAAAAAAAAAAAAAAAAAAAAAAAAAAAAAAAAAAAAAAAAAAAAAAAAAAAAAAAAAAAAAAAAAAAAAAAAAAAAAAAAAAAAAAAAAAAAAAAAAAAAAAAAAAAAAAAAAAAAAAAAAAAAAAAAAAAAAAAAAAAAAAAAAAAAAAAAAAAAAAAAAAAAAAAAAAAAAAAAAAAAAAAAAAAAAAAAAAAAAAAAAAAAAAAAAAAAAAAAAAAAAAAAAAAAAAAAAAAAAAAAAAAAAAAAAAAAAAAAAAAAAAAAAAAAAAAAAAAAAAAAAAAAAAAAAAAAAAAAAAAAAAAAAAAAAAAAAAAAAAAAAAAAAAAAAAAAAAAAAAAAAAAAAAAAAAAAAAAAAAAAAAAAAAAAAAAAAAAAAAAAAAAAAAAAAAAAAAAAAAAAAAAAAAAAAAAAAAAAAAAAAAAAAAAAAAAAAAAAAAAAAAAAAAAAAAAAAAAAAAAAAAAAAAAAAAAAAAAAAAAAAAAAAAAAAAAAAAAAAAAAAAAAAAAAAAAAAAAAAAAAAAAAAAAAAAAAAAAAAAAAAAAAAAAAAAAAAAAAAAAAAAAAAAAAAAAAAAAAAAAAAAAAAAAAAAAAAAAAAAAAAAAAAAAAAAAAAAAAAAAAAAAAAAAAAAAAAAAAAAAAAAAAAAAAAAAAAAAAAAAAAAAAAAAAAAAAAAAAAAAAAAAAAAAAAAAAAAAAAAAAAAAAAAAAAAAAAAAAAAAAAAAAAAAAAAAAAAAAAAAAAAAAAAAAAAAAAAAAAAAAAAAAAAAAAAAAAAAAAAAAAAAAAAAAAAAAAAAAAAAAAAAAAAAAAAAAAAAAAAAAAAAAAAAAAAAAAAAAAAAAAAAAAAAAAAAAAAAAAAAAAAAAAAAAAAAAAAAAAAAAAAAAAAAAAAAAAAAAAAAAAAAAAAAAAAAAAAAAAAAAAAAAAAAAAAAAAAAAAAAAAAAAAAAAAAAAAAAAAAAAAAAAAAAAAAAAAAAAAAAAAAAAAAAAAAAAAAAAAAAAAAAAAAAAAAAAAAAAAAAAAAAAAAAAAAAAAAAAAAAAAAAAAAAAAAAAAAAAAAAAAAAAAAAAAAAAAAAAAAAAAAAAAAAAAAAAAAAAAAAAAAAAAAAAAAAAAAAAAAAAAAAAAAAAAAAAAAAAAAAAAAAAAAAAAAAAAAAAAAAAAAAAAAAAAAAAAAAAAAAAAAAAAAAAAAAAAAAAAAAAAAAAAAAAAAAAAAAAAAAAAAAAAAAAAAAAAAAAAAAAAAAAAAAAAAAAAAAAAAAAAAAAAAAAAAAAAAAAAAAAAAAAAAAAAAAAAAAAAAAAAAAAAAAAAAAAAAAAAAAAAAAAAAAAAAAAAAAAAAAAAAAAAAAAAAAAAAAAAAAAAAAAAAAAAAAAAAAAAAAAAAAAAAAAAAAAAAAAAAAAAAAAAAAAAAAAAAAAAAAAAAAAAAAAAAAAAAAAAAAAAAAAAAAAAAAAAAAAAAAAAAAAAAAAAAAAAAAAAAAAAAAAAAAAAAAAAAAAAAAAAAAAAAAAAAAAAAAAAAAAAAAAAAAAAAAAAAAAAAAAAAAAAAAAAAAAAAAAAAAAAAAAAAAAAAAAAAAAAAAAAAAAAAAAAAAAAAAAAAAAAAAAAAAAAAAAAAAAAAAAAAAAAAAAAAAAAAAAAAAAAAAAAAAAAAAAAAAAAAAAAAAAAAAAAAAAAAAAAAAAAAAAAAAAAAAAAAAAAAAAAAAAAAAAAAAAAAAAAAAAAAAAAAAAAAAAAAAAAAAAAAAAAAAAAAAAAAAAAAAAAAAAAAAAAAAAAAAAAAAAAAAAAAAAAAAAAAAAAAAAAAAAAAAAAAAAAAAAAAAAAAAAAAAAAAAAAAAAAAAAAAAAAAAAAAAAAAAAAAAAAAAAAAAAAAAAAAAAAAAAAAAAAAAAAAAAAAAAAAAAAAAAAAAAAAAAAAAAAAAAAAAAAAAAAAAAAAAAAAAAAAAAAAAAAAAAAAAAAAAAAAAAAAAAAAAAAAAAAAAAAAAAAAAAAAAAAAAAAAAAAAAAAAAAAAAAAAAAAAAAAAAAAAAAAAAAAAAAAAAAAAAAAAAAAAAAAAAAAAAAAAAAAAAAAAAAAAAAAAAAAAAAAAAAAAAAAAAAAAAAAAAAAAAAAAAAAAAAAAAAAAAAAAAAAAAAAAAAAAAAAAAAAAAAAAAAAAAAAAAAAAAAAAAAAAAAAAAAAPZYQFECFHNeNDDhHmcyHc7zi9Otmc83I2+wEo5VJoVGRAHN6koXdh161JQlL5FQIqLmqzdTuZpfAZcXIsGbSksC0LI=</c2pa:manifest></metadata><defs><style>.k-out{fill:none;stroke:#231f20;stroke-width:3.23;stroke-linejoin:round;}.bl-top{fill:#d1d3d4;stroke:#231f20;stroke-width:1.05;stroke-linejoin:round;}.bl-side{fill:#939598;stroke:#231f20;stroke-width:1.05;stroke-linejoin:round;}.gr-k{fill:none;stroke:#231f20;stroke-width:2.85;stroke-linejoin:round;stroke-linecap:round;}.gr{fill:none;stroke:#a7a9ac;stroke-width:1.52;stroke-linejoin:round;stroke-linecap:round;}.bl-hl{fill:none;stroke:#fff;stroke-width:1.14;stroke-linecap:round;}.fb-side{fill:#060f26;stroke:#231f20;stroke-width:1.05;}.seam{fill:none;stroke:#2c3f75;stroke-width:0.95;}.fb-top{fill:#13244d;stroke:#231f20;stroke-width:1.05;}.fb-gl{fill:none;stroke:#4f66a0;stroke-width:2.66;stroke-linecap:round;}.eye-rim{fill:none;stroke:#2c3f75;stroke-width:1.33;stroke-linecap:round;}.pd-rim{fill:#bcbec0;stroke:#231f20;stroke-width:0.95;}.pd-in{fill:#0b1733;stroke:#231f20;stroke-width:0.76;}.bt-s{fill:#02060f;}.bt{fill:#58595b;stroke:#231f20;stroke-width:0.86;}.bt-h{fill:none;stroke:#939598;stroke-width:0.95;stroke-linecap:round;}.gl{fill:none;stroke:#fff;stroke-width:0.90;stroke-linejoin:round;stroke-linecap:round;}.pv{fill:#d1d3d4;stroke:#231f20;stroke-width:0.95;}.pv-c{fill:#939598;}.pv-hl{fill:none;stroke:#fff;stroke-width:0.95;stroke-linecap:round;}.emb{fill:#fdba17;stroke:#231f20;stroke-width:0.86;}.emb-c{fill:#e8151e;}.rg-k{fill:none;stroke:#231f20;stroke-width:6.6;stroke-linecap:round;stroke-linejoin:round;}.rg-m{fill:none;stroke:#bcbec0;stroke-width:3.8;stroke-linecap:round;stroke-linejoin:round;}.rg-h{fill:none;stroke:#f1f2f2;stroke-width:1.1;stroke-linecap:round;stroke-linejoin:round;}.sk-k{fill:none;stroke:#231f20;stroke-width:5.4;stroke-linecap:round;}.sk-r{fill:none;stroke:#eb1d25;stroke-width:2.7;stroke-linecap:round;}</style></defs><g id="cle_vehicule"><g transform="translate(0 0) translate(53.7 67.75) rotate(-33.0) scale(1.052)"><path class="k-out" d="M40 -6.5H76L79 -4.6H98L107 0L98 4.6H40Z"/></g><g transform="translate(2.2 3.8) translate(53.7 67.75) rotate(-33.0) scale(1.052)"><path class="k-out" d="M40 -6.5H76L79 -4.6H98L107 0L98 4.6H40Z"/></g><g transform="translate(0 0) translate(53.7 67.75) rotate(-33.0) scale(1.052)"><path class="k-out" d="M-22 -17C0 -19.5 26 -16.5 36 -10.5C44 -6.5 47 -3.5 47 0C47 3.5 44 6.5 36 10.5C26 16.5 0 19.5 -22 17C-32 16 -37 9 -37 0C-37 -9 -32 -16 -22 -17Z"/></g><g transform="translate(2.2 3.8) translate(53.7 67.75) rotate(-33.0) scale(1.052)"><path class="k-out" d="M-22 -17C0 -19.5 26 -16.5 36 -10.5C44 -6.5 47 -3.5 47 0C47 3.5 44 6.5 36 10.5C26 16.5 0 19.5 -22 17C-32 16 -37 9 -37 0C-37 -9 -32 -16 -22 -17Z"/></g><path class="rg-k" d="M31.64,82.07L32.79,82.16L33.88,82.40L34.90,82.78L35.85,83.31L36.71,83.97L37.49,84.76L38.17,85.69L38.76,86.73L39.24,87.88L39.61,89.13L39.87,90.47L40.01,91.90L40.04,93.39L39.96,94.94L39.76,96.54L39.45,98.16L39.02,99.81L38.49,101.46L37.86,103.10L37.13,104.73L36.31,106.32L35.41,107.86L34.42,109.34L33.37,110.76L32.25,112.09L31.08,113.33L29.87,114.46L28.63,115.48L27.36,116.39L26.08,117.16L24.79,117.80L23.51,118.31L22.25,118.67L21.02,118.88L19.83,118.95L18.68,118.87L17.59,118.64L16.56,118.27L15.61,117.76L14.73,117.10L13.95,116.32L13.26,115.40L12.67,114.37L12.18,113.23L11.81,111.98L11.54,110.64L11.39,109.22L11.35,107.73L11.43,106.19L11.62,104.59L11.92,102.97L12.34,101.32L12.86,99.67L13.49,98.03L14.21,96.40L15.03,94.81L15.93,93.26L16.91,91.78L17.96,90.36L19.07,89.02"/><path class="rg-m" d="M31.64,82.07L32.79,82.16L33.88,82.40L34.90,82.78L35.85,83.31L36.71,83.97L37.49,84.76L38.17,85.69L38.76,86.73L39.24,87.88L39.61,89.13L39.87,90.47L40.01,91.90L40.04,93.39L39.96,94.94L39.76,96.54L39.45,98.16L39.02,99.81L38.49,101.46L37.86,103.10L37.13,104.73L36.31,106.32L35.41,107.86L34.42,109.34L33.37,110.76L32.25,112.09L31.08,113.33L29.87,114.46L28.63,115.48L27.36,116.39L26.08,117.16L24.79,117.80L23.51,118.31L22.25,118.67L21.02,118.88L19.83,118.95L18.68,118.87L17.59,118.64L16.56,118.27L15.61,117.76L14.73,117.10L13.95,116.32L13.26,115.40L12.67,114.37L12.18,113.23L11.81,111.98L11.54,110.64L11.39,109.22L11.35,107.73L11.43,106.19L11.62,104.59L11.92,102.97L12.34,101.32L12.86,99.67L13.49,98.03L14.21,96.40L15.03,94.81L15.93,93.26L16.91,91.78L17.96,90.36L19.07,89.02"/><path class="rg-h" d="M31.64,82.07L32.79,82.16L33.88,82.40L34.90,82.78L35.85,83.31L36.71,83.97L37.49,84.76L38.17,85.69L38.76,86.73L39.24,87.88L39.61,89.13L39.87,90.47L40.01,91.90L40.04,93.39L39.96,94.94L39.76,96.54L39.45,98.16L39.02,99.81L38.49,101.46L37.86,103.10L37.13,104.73L36.31,106.32L35.41,107.86L34.42,109.34L33.37,110.76L32.25,112.09L31.08,113.33L29.87,114.46L28.63,115.48L27.36,116.39L26.08,117.16L24.79,117.80L23.51,118.31L22.25,118.67L21.02,118.88L19.83,118.95L18.68,118.87L17.59,118.64L16.56,118.27L15.61,117.76L14.73,117.10L13.95,116.32L13.26,115.40L12.67,114.37L12.18,113.23L11.81,111.98L11.54,110.64L11.39,109.22L11.35,107.73L11.43,106.19L11.62,104.59L11.92,102.97L12.34,101.32L12.86,99.67L13.49,98.03L14.21,96.40L15.03,94.81L15.93,93.26L16.91,91.78L17.96,90.36L19.07,89.02"/><g transform="translate(2.2 3.8) translate(53.7 67.75) rotate(-33.0) scale(1.052)"><path class="bl-side" d="M40 -6.5H76L79 -4.6H98L107 0L98 4.6H40Z"/></g><g transform="translate(0 0) translate(53.7 67.75) rotate(-33.0) scale(1.052)"><path class="bl-top" d="M40 -6.5H76L79 -4.6H98L107 0L98 4.6H40Z"/><path class="gr-k" d="M47 1.6H57L60.5 -2.2H70L73.5 1.6H84L87.5 -1.2H99"/><path class="gr" d="M47 1.6H57L60.5 -2.2H70L73.5 1.6H84L87.5 -1.2H99"/><path class="bl-hl" d="M42 -4.4H75"/></g><g transform="translate(2.2 3.8) translate(53.7 67.75) rotate(-33.0) scale(1.052)"><path class="fb-side" d="M-22 -17C0 -19.5 26 -16.5 36 -10.5C44 -6.5 47 -3.5 47 0C47 3.5 44 6.5 36 10.5C26 16.5 0 19.5 -22 17C-32 16 -37 9 -37 0C-37 -9 -32 -16 -22 -17ZM-19.4 0.0A5.6 5.6 0 1 0 -30.6 0.0A5.6 5.6 0 1 0 -19.4 0.0Z" fill-rule="evenodd"/></g><g transform="translate(0.9900000000000001 1.71) translate(53.7 67.75) rotate(-33.0) scale(1.052)"><path class="seam" d="M-22 -17C0 -19.5 26 -16.5 36 -10.5C44 -6.5 47 -3.5 47 0C47 3.5 44 6.5 36 10.5C26 16.5 0 19.5 -22 17C-32 16 -37 9 -37 0C-37 -9 -32 -16 -22 -17Z"/></g><g transform="translate(0 0) translate(53.7 67.75) rotate(-33.0) scale(1.052)"><path class="fb-top" d="M-22 -17C0 -19.5 26 -16.5 36 -10.5C44 -6.5 47 -3.5 47 0C47 3.5 44 6.5 36 10.5C26 16.5 0 19.5 -22 17C-32 16 -37 9 -37 0C-37 -9 -32 -16 -22 -17ZM-19.4 0.0A5.6 5.6 0 1 0 -30.6 0.0A5.6 5.6 0 1 0 -19.4 0.0Z" fill-rule="evenodd"/></g><g transform="translate(0 0) translate(53.7 67.75) rotate(-33.0) scale(1.052)"><path class="fb-gl" d="M-20 -13.8C0 -15.8 22 -13.6 34 -8.4"/><path class="eye-rim" d="M-31.8 0A6.8 6.8 0 0 1 -18.2 0"/><path class="pd-rim" d="M-2 -10.5H28A10.5 10.5 0 0 1 28 10.5H-2A10.5 10.5 0 0 1 -2 -10.5Z"/><path class="pd-in" d="M-2 -10.5H28A10.5 10.5 0 0 1 28 10.5H-2A10.5 10.5 0 0 1 -2 -10.5Z" transform="translate(13 0) scale(0.9 0.8) translate(-13 0)"/><circle class="bt-s" cx="0.8" cy="1.0" r="5.4"/><circle class="bt" cx="0.0" cy="0" r="5.4"/><path class="bt-h" d="M-3.4 -2.4A4.2 4.2 0 0 1 1.0 -4.4"/><path class="gl" d="M-2.2 -0.4H2.2V2.8H-2.2ZM-1.5 -0.4V-1.9A1.5 1.5 0 0 1 1.5 -1.9V-0.4" transform="translate(0.0 0) rotate(33)"/><circle class="bt-s" cx="13.8" cy="1.0" r="5.4"/><circle class="bt" cx="13.0" cy="0" r="5.4"/><path class="bt-h" d="M9.6 -2.4A4.2 4.2 0 0 1 14.0 -4.4"/><path class="gl" d="M-2.2 -0.4H2.2V2.8H-2.2ZM-1.5 -0.4V-1.9A1.5 1.5 0 0 1 1.5 -2.6" transform="translate(13.0 0) rotate(33)"/><circle class="bt-s" cx="26.8" cy="1.0" r="5.4"/><circle class="bt" cx="26.0" cy="0" r="5.4"/><path class="bt-h" d="M22.6 -2.4A4.2 4.2 0 0 1 27.0 -4.4"/><path class="gl" d="M-2.8 2.3H2.8V0.3L1.5 -1.9H-1.5L-2.8 0.3Z" transform="translate(26.0 0) rotate(33)"/><circle class="pv" cx="39.5" cy="0" r="5.0"/><circle class="pv-c" cx="39.5" cy="0" r="2.0"/><path class="pv-hl" d="M36 -2.4A4 4 0 0 1 39.2 -4.1"/><circle class="emb" cx="-13.5" cy="0" r="2.8"/><circle class="emb-c" cx="-13.5" cy="0" r="1.2"/></g><path class="rg-k" d="M19.07,89.02L19.26,88.81L19.46,88.59L19.65,88.38L19.85,88.17L20.05,87.97L20.25,87.76L20.45,87.56L20.65,87.37L20.86,87.17L21.06,86.98L21.27,86.79L21.47,86.61L21.68,86.43L21.89,86.25L22.10,86.07L22.31,85.90L22.52,85.73L22.73,85.57L22.95,85.41L23.16,85.25L23.37,85.09L23.59,84.94L23.80,84.79L24.02,84.65L24.23,84.51L24.45,84.37L24.67,84.24L24.88,84.11L25.10,83.98L25.32,83.86L25.53,83.75L25.75,83.63L25.97,83.52L26.18,83.41L26.40,83.31L26.62,83.21L26.83,83.12L27.05,83.03L27.27,82.94L27.48,82.86L27.70,82.78L27.91,82.71L28.13,82.64L28.34,82.57L28.55,82.51L28.77,82.45L28.98,82.39L29.19,82.35L29.40,82.30L29.61,82.26L29.82,82.22L30.02,82.19L30.23,82.16L30.44,82.13L30.64,82.11L30.84,82.10L31.04,82.09L31.25,82.08L31.44,82.07L31.64,82.07"/><path class="rg-m" d="M19.07,89.02L19.26,88.81L19.46,88.59L19.65,88.38L19.85,88.17L20.05,87.97L20.25,87.76L20.45,87.56L20.65,87.37L20.86,87.17L21.06,86.98L21.27,86.79L21.47,86.61L21.68,86.43L21.89,86.25L22.10,86.07L22.31,85.90L22.52,85.73L22.73,85.57L22.95,85.41L23.16,85.25L23.37,85.09L23.59,84.94L23.80,84.79L24.02,84.65L24.23,84.51L24.45,84.37L24.67,84.24L24.88,84.11L25.10,83.98L25.32,83.86L25.53,83.75L25.75,83.63L25.97,83.52L26.18,83.41L26.40,83.31L26.62,83.21L26.83,83.12L27.05,83.03L27.27,82.94L27.48,82.86L27.70,82.78L27.91,82.71L28.13,82.64L28.34,82.57L28.55,82.51L28.77,82.45L28.98,82.39L29.19,82.35L29.40,82.30L29.61,82.26L29.82,82.22L30.02,82.19L30.23,82.16L30.44,82.13L30.64,82.11L30.84,82.10L31.04,82.09L31.25,82.08L31.44,82.07L31.64,82.07"/><path class="rg-h" d="M19.07,89.02L19.26,88.81L19.46,88.59L19.65,88.38L19.85,88.17L20.05,87.97L20.25,87.76L20.45,87.56L20.65,87.37L20.86,87.17L21.06,86.98L21.27,86.79L21.47,86.61L21.68,86.43L21.89,86.25L22.10,86.07L22.31,85.90L22.52,85.73L22.73,85.57L22.95,85.41L23.16,85.25L23.37,85.09L23.59,84.94L23.80,84.79L24.02,84.65L24.23,84.51L24.45,84.37L24.67,84.24L24.88,84.11L25.10,83.98L25.32,83.86L25.53,83.75L25.75,83.63L25.97,83.52L26.18,83.41L26.40,83.31L26.62,83.21L26.83,83.12L27.05,83.03L27.27,82.94L27.48,82.86L27.70,82.78L27.91,82.71L28.13,82.64L28.34,82.57L28.55,82.51L28.77,82.45L28.98,82.39L29.19,82.35L29.40,82.30L29.61,82.26L29.82,82.22L30.02,82.19L30.23,82.16L30.44,82.13L30.64,82.11L30.84,82.10L31.04,82.09L31.25,82.08L31.44,82.07L31.64,82.07"/><path class="sk-k" d="M30.00 25.00V35.00M25.00 30.00H35.00"/><path class="sk-r" d="M30.00 25.00V35.00M25.00 30.00H35.00"/><path class="sk-k" d="M140.00 90.50V101.50M134.50 96.00H145.50"/><path class="sk-r" d="M140.00 90.50V101.50M134.50 96.00H145.50"/></g></svg>